<svg xmlns="http://www.w3.org/2000/svg" width="260.000000pt" height="260.000000pt" version="1.0" viewBox="0 0 260.000000 260.000000"><path d="M88.3 16.5c-3.9 1.6-7.8 6.9-9 12-.8 3.5-1.2 4-3.8 4.1-8.3.3-11.6 5.2-8.4 12.3 1.1 2.6 1.4 4.1.7 4.1s-2.2 1-3.5 2.2-2.3 1.7-2.3 1.2c0-1.9-5.5-4.1-9.6-3.8-10.5.7-17 7.6-17.3 18.6-.1 2.1-.8 2.9-3.6 3.8-6 2-7.9 9.5-3.4 13.4 1.6 1.4 2.4 3.3 2.5 5.5.1 1.8.6 3.6 1.3 4 .8.5.7 1.3-.4 2.7-.8 1-1.5 2.5-1.5 3.2 0 1.8 10.5 11.7 18 17 3.6 2.5 6.7 4.7 6.8 4.8.2.2.5 2 .7 4.1.8 10.2 2.5 12.6 26.6 36.5C98.6 178.5 101 181.3 101 184c0 1.7.4 3.9 1 4.9.8 1.6.5 2-1.9 2.4-3 .6-5.1 4.5-5.1 9.2 0 2.7 3.6 6.1 7.3 7 3 .8 3.1 1.2 1.7 5-.6 1.5-1.2 4.6-1.3 6.9-.2 2.2-.9 5.1-1.5 6.3-1.8 3.2-1.5 4.1 1.3 3.5 2.3-.4 3 .4 2.6 3-.1 1.3 7.9 7.8 10.6 8.4 1.6.4 4.1 1.6 5.7 2.7 3.5 2.5 12.4 2.7 15.8.5 1.3-.8 4.6-2.3 7.5-3.2 5.6-1.8 10.3-5.6 10.3-8.1 0-.9.6-1.5 1.3-1.3s2.9-1.6 5-3.9l3.8-4.1-3-2.1c-5.3-3.8-9.1-10.5-6.1-10.7 4-.1 8.1-1.8 9-3.5.6-1 1.1-4 1.2-6.6.1-4.2-.3-5.1-3.4-7.8-2.3-2-3.4-3.8-3.3-5.5.1-1.4.3-3.6.4-5 .2-2.7 7.3-11.2 17.9-21.3 20-19.1 25.2-25.2 25.2-30.1 0-2 21.4-16 26.8-17.7 6.2-1.8 5.7-3.6-2.6-8.9l-5.2-3.4 3.1-2c7.7-4.8 6.4-14.7-2.3-18.9-2.9-1.4-3.1-1.8-3.2-7.5-.1-3.3.1-5.9.3-5.6.2.2 1.2-2 2.2-4.9 1.1-3.3 1.4-5.6.8-6.2-.5-.5-3.8-.9-7.3-.8h-6.5l-.6-3.8c-.4-2.2-1.1-4.1-1.6-4.5-2.2-1.3-10.9 2.8-14.4 6.9-4.3 5-4.5 3.8-.3-3.8 5.3-9.9 3.2-16.8-5.1-16.5-6.6.3-7 .2-8.2-4-1.5-4.8-8.5-12.6-12.3-13.6-6.6-1.6-15.4 2.4-17.2 7.8-.5 1.8-.7 1.8-3.5-.2-6.3-4.6-10.6-2.6-9.9 4.5.1 1.1.5 2.4.9 2.8s.3 2.4-.3 4.3c-1 3.1-1.5 3.5-4.1 3.2-3.8-.3-5.5.7-5.5 3.3 0 2.1-1.7 2.7-1.7.6 0-2-6.3-20-7.5-21.4-1.2-1.5-4.8-1.8-4.8-.4 0 .5-.9 1.3-2.1 1.6-1.3.5-1.8 1.2-1.4 2.2.3.9-1.4-.2-3.8-2.4-4-3.7-5.7-4.5-12.2-5.7-1.2-.2-3.5.2-5.2.9m18.1 182.1c.7 1.7-.1 1.7-4.3.3-2-.7-2.8-1.4-2.1-1.9 1.7-1 5.8 0 6.4 1.6m55.6.4c1.3.8 1.3 1.1.1 2.2s-1.3 1-.6-.2c.4-.8-.2-.5-1.4.7-2.2 2.3-3.7 3.1-2.6 1.3.3-.5-.7-.3-2.1.5-3.6 1.9-5.3.7-2.3-1.6 1.3-.9 2.7-1.5 3.1-1.2.5.2.8.1.7-.4-.4-2.5 2.2-3.2 5.1-1.3"/></svg>