<svg xmlns="http://www.w3.org/2000/svg" width="200" height="65" fill="none" viewBox="0 0 200 65"><path fill="#D17D2F" d="M186.323 63.53V48.25h8.467v.865h-7.539v6.334h7.086v.866h-7.086v6.349h7.717v.865zm-5.324-15.28h.929v10.116q0 1.56-.721 2.783a5.2 5.2 0 0 1-1.99 1.925q-1.263.702-2.904.702-1.635 0-2.904-.702a5.26 5.26 0 0 1-1.998-1.932q-.72-1.224-.713-2.776V48.25h.928v10.065q0 1.32.594 2.35a4.4 4.4 0 0 0 1.657 1.627q1.054.59 2.436.59t2.436-.59a4.33 4.33 0 0 0 1.649-1.627q.601-1.03.601-2.35zm-20.168 10.504h1.069l2.214 2.933.208.283 2.243 2.992h-1.07l-1.842-2.455-.193-.268zm6.239-2.865q0 2.365-.817 4.134-.818 1.76-2.273 2.738-1.449.977-3.342.977-1.902 0-3.357-.977-1.449-.985-2.266-2.746-.817-1.768-.817-4.126 0-2.365.817-4.126.825-1.76 2.273-2.738 1.448-.984 3.35-.985 1.893 0 3.342.978 1.455.977 2.273 2.745.817 1.761.817 4.126m-.907 0q0-2.126-.713-3.685-.705-1.56-1.953-2.41-1.248-.858-2.859-.858-1.612 0-2.86.85-1.248.843-1.961 2.41-.705 1.56-.705 3.693 0 2.112.698 3.679.705 1.56 1.953 2.417 1.248.858 2.875.858 1.611 0 2.859-.85 1.248-.859 1.953-2.418.713-1.56.713-3.686m-15.595-7.639v15.28h-.928V48.25zm-14.969.865v-.866h10.658v.866h-4.865v14.414h-.929V49.115zM124.293 63.53V48.25h8.467v.865h-7.539v6.334h7.086v.866h-7.086v6.349h7.717v.865zm-5.324-15.28h.929v10.116q0 1.56-.721 2.783a5.23 5.23 0 0 1-1.99 1.925q-1.263.702-2.904.702-1.635 0-2.904-.702a5.26 5.26 0 0 1-1.998-1.932q-.721-1.224-.713-2.776V48.25h.928v10.065q0 1.32.594 2.35a4.4 4.4 0 0 0 1.657 1.627q1.055.59 2.436.59t2.436-.59a4.33 4.33 0 0 0 1.649-1.627q.601-1.03.601-2.35zM95.208 63.53V48.25h4.939q1.381 0 2.332.492a3.37 3.37 0 0 1 1.441 1.38q.497.887.497 2.067 0 .924-.297 1.641a3.16 3.16 0 0 1-.832 1.186 2.9 2.9 0 0 1-1.24.642v.09q.788.06 1.463.552.676.484 1.085 1.32.416.835.416 1.948 0 1.171-.505 2.066-.498.888-1.493 1.395-.996.5-2.466.5zm.928-.866h4.412q1.716 0 2.636-.866.929-.865.929-2.23 0-.963-.453-1.724a3.2 3.2 0 0 0-1.241-1.201q-.794-.448-1.841-.448h-4.442zm0-7.32h4.33q.973 0 1.649-.425a2.8 2.8 0 0 0 1.04-1.141 3.5 3.5 0 0 0 .364-1.59q0-1.417-.877-2.245-.876-.828-2.495-.828h-4.011zM76.294 63.53V48.25h4.687q1.44 0 2.48.566a3.94 3.94 0 0 1 1.597 1.575q.557 1 .557 2.327 0 1.314-.557 2.313a3.9 3.9 0 0 1-1.596 1.552q-1.033.56-2.474.56h-4.196v-.873h4.174q1.173 0 2.005-.44a3.1 3.1 0 0 0 1.278-1.231q.446-.8.446-1.88-.001-1.09-.446-1.896a3.1 3.1 0 0 0-1.285-1.26q-.832-.449-2.005-.448h-3.736v14.414zm6.247-6.925 3.743 6.924h-1.07l-3.72-6.924zM63.978 63.53V48.25h8.467v.865h-7.539v6.334h7.086v.866h-7.086v6.349h7.717v.865zm-16.531 0-4.182-15.28h.966l3.713 13.84h.09l3.654-13.84h1.129l3.654 13.84h.09l3.713-13.84h.958L57.05 63.53h-1.07l-3.69-13.751h-.082l-3.692 13.75zm-6.153-7.64q0 2.364-.817 4.133-.818 1.76-2.273 2.738-1.449.977-3.343.977-1.9 0-3.357-.977-1.448-.985-2.265-2.746-.816-1.768-.817-4.126 0-2.365.817-4.126.825-1.76 2.273-2.738 1.448-.984 3.35-.985 1.893 0 3.342.978 1.455.977 2.273 2.745.817 1.761.817 4.126m-.907 0q0-2.127-.713-3.686-.705-1.56-1.953-2.41-1.248-.858-2.86-.858t-2.859.85q-1.248.843-1.96 2.41-.706 1.56-.706 3.693 0 2.112.698 3.679.705 1.56 1.953 2.417 1.248.858 2.875.858 1.611 0 2.859-.85 1.248-.859 1.953-2.418.713-1.56.713-3.686M18.022 63.53V48.25h.929v14.414h7.427v.865zm-12.255 0V48.25h8.49v.865H6.696v6.334h6.855v.866H6.696v7.214zM182.848 0q4.968 0 8.68 2.259 3.764 2.258 5.804 6.513 2.091 4.201 2.091 10.242 0 5.883-2.144 10.295-2.091 4.413-5.856 6.88-3.764 2.47-8.627 2.47-4.967 0-8.732-2.259-3.713-2.259-5.804-6.513-2.04-4.254-2.039-10.243 0-5.882 2.143-10.294 2.145-4.413 5.857-6.881Q177.985 0 182.848 0m-.209.945q-3.399 0-5.909 2.364t-3.921 6.513q-1.36 4.15-1.36 9.612 0 5.568 1.517 9.717 1.568 4.098 4.183 6.356 2.666 2.206 5.856 2.206 3.399 0 5.908-2.364t3.87-6.513q1.411-4.201 1.411-9.612 0-5.62-1.568-9.717-1.517-4.097-4.131-6.303-2.614-2.259-5.856-2.259m-20.717-.21v1.05q-1.779.054-2.719.526-.89.473-1.203 1.523t-.314 2.994v31.358h-1.202L134.523 4.097V31.83q0 1.89.314 2.994a2.55 2.55 0 0 0 1.359 1.523q1.046.42 3.085.526v1.05q-.941-.105-2.457-.105a83 83 0 0 0-2.876-.052q-1.308 0-2.667.052-1.307 0-2.196.105v-1.05q1.778-.105 2.667-.526.94-.472 1.255-1.523.313-1.102.313-2.994V6.303q0-1.944-.313-2.836-.315-.945-1.255-1.26-.89-.369-2.667-.421V.736q.89.052 2.196.104 1.359.053 2.667.053 1.15 0 2.196-.053 1.045-.053 1.882-.105l18.458 28.574V6.83q0-1.944-.366-2.995-.315-1.05-1.36-1.523-.993-.472-3.033-.525V.736q.942.052 2.458.104 1.568.053 2.876.053 1.36 0 2.666-.053 1.36-.053 2.197-.105M111.864.473l12.758 33.038q.785 1.996 1.778 2.679.993.63 1.83.683v1.05a26 26 0 0 0-2.562-.105 88 88 0 0 0-3.033-.052q-2.039 0-3.817.052-1.778 0-2.876.105v-1.05q2.667-.105 3.399-.893.732-.84-.314-3.52l-9.725-26.104.837-.683-9.098 23.741q-.837 2.1-.994 3.572-.157 1.418.261 2.258.471.84 1.517 1.209 1.098.367 2.719.42v1.05a43 43 0 0 0-3.085-.105 88 88 0 0 0-2.928-.052q-1.308 0-2.249.052-.888 0-1.673.105v-1.05q1.046-.263 2.144-1.208 1.098-.998 1.987-3.362L111.027.473zm6.379 22.323v1.05h-15.582l.523-1.05z"/><path fill="#D17D2F" d="M63.266.735q1.097.053 2.876.105 1.778.053 3.503.053 2.457 0 4.706-.053 2.248-.052 3.19-.052 4.234 0 7.006 1.208 2.824 1.207 4.183 3.309 1.412 2.048 1.412 4.622 0 1.575-.628 3.362-.627 1.785-2.196 3.362-1.516 1.575-4.183 2.626-2.667.998-6.745.998h-5.02v-1.05h4.497q3.713 0 5.647-1.156 1.987-1.209 2.667-3.152.732-1.995.732-4.412 0-4.149-1.987-6.408-1.934-2.31-6.693-2.311-2.405 0-3.137.893t-.732 3.624v26.053q0 1.89.314 2.836.314.945 1.202 1.26.942.315 2.72.42v1.051q-1.203-.105-3.033-.105a130 130 0 0 0-7.425 0q-1.778 0-2.876.105v-1.05q1.778-.105 2.667-.42.94-.315 1.254-1.261t.314-2.836V6.303q0-1.944-.314-2.836-.314-.945-1.254-1.26-.89-.369-2.667-.421zm8.314 18.647q2.823.105 4.444.262 1.62.105 2.614.21 1.047.105 1.987.263 3.505.578 5.02 2.154 1.57 1.522 2.3 4.78l1.308 5.357q.522 2.31 1.046 3.362.574.998 1.725.945.889-.053 1.464-.578.627-.525 1.307-1.418l.785.578q-1.099 1.629-2.301 2.521-1.15.84-3.294.84-1.935 0-3.399-1.155t-2.196-4.517l-1.15-5.253q-.471-2.258-1.098-3.887-.576-1.68-1.673-2.626-1.046-.945-3.138-.945h-5.647zM58.88.735v1.05q-1.776.054-2.718.421-.89.315-1.203 1.26-.314.893-.314 2.837v26.053q0 1.89.314 2.836.314.945 1.203 1.26.941.315 2.719.42v1.051q-1.203-.105-3.033-.105a130 130 0 0 0-7.425 0q-1.778 0-2.876.105v-1.05q1.778-.105 2.667-.42.942-.315 1.255-1.261.315-.946.314-2.836V6.303q0-1.944-.314-2.836-.314-.945-1.255-1.26-.889-.369-2.667-.421V.736q1.098.052 2.876.104a130 130 0 0 0 7.425 0q1.83-.053 3.033-.105m-17.731 0v1.05q-1.777.054-2.719.421-.888.315-1.202 1.26-.315.893-.314 2.837v26.053q0 1.89.314 2.836.314.945 1.202 1.26.942.315 2.72.42v1.051q-1.203-.105-3.033-.105a130 130 0 0 0-7.425 0q-1.778 0-2.876.105v-1.05q1.777-.105 2.667-.42.94-.315 1.255-1.261.313-.945.313-2.837V3.467l.21.157L19.45 38.186h-.837L5.438 4.097V31.83q0 1.89.314 2.994a2.55 2.55 0 0 0 1.36 1.523q1.045.42 3.084.526v1.05q-.941-.105-2.457-.105a83 83 0 0 0-2.876-.052q-1.307 0-2.667.052-1.306 0-2.196.105v-1.05q1.777-.105 2.667-.526.94-.472 1.255-1.523.313-1.102.313-2.994V6.303q0-1.944-.313-2.836-.315-.945-1.255-1.26-.89-.369-2.667-.421V.736Q.89.787 2.196.84q1.359.053 2.667.053 1.15 0 2.353-.053Q8.47.787 9.307.735l11.87 31.41-.89.42L32.053.894h2.458q1.83 0 3.608-.053 1.83-.053 3.032-.105"/></svg>